<svg width="1737" height="366" viewBox="0 0 1737 366" fill="none" xmlns="http://www.w3.org/2000/svg">
<path d="M413.074 271.173C400.894 271.173 392.301 268.42 387.296 262.914C382.29 257.408 379.787 249.065 379.787 237.886V162.303H356.762V143.532H379.787V107.743H400.31V143.532H433.346V162.303H400.31V237.636C400.31 242.975 401.395 246.813 403.564 249.148C405.733 251.318 409.57 252.402 415.076 252.402H435.349V271.173H413.074ZM507.058 272.674C494.378 272.674 483.282 269.921 473.772 264.415C464.261 258.909 456.837 251.318 451.497 241.64C446.325 231.796 443.739 220.367 443.739 207.352C443.739 194.338 446.242 182.992 451.247 173.315C456.419 163.471 463.511 155.796 472.52 150.29C481.697 144.784 492.292 142.031 504.305 142.031C516.319 142.031 526.747 144.45 535.59 149.289C544.6 154.127 551.607 161.052 556.613 170.061C561.785 179.071 564.538 189.917 564.872 202.597C564.872 203.932 564.789 205.35 564.622 206.852C564.622 208.354 564.538 209.855 564.372 211.357H465.262C465.262 211.524 465.262 211.774 465.262 212.108C465.262 212.441 465.262 212.775 465.262 213.109C465.596 221.118 467.348 228.292 470.518 234.633C473.855 240.806 478.527 245.645 484.534 249.148C490.54 252.652 497.548 254.404 505.557 254.404C514.567 254.404 522.325 252.152 528.832 247.647C535.34 242.975 539.678 236.551 541.847 228.376H562.62C560.951 236.885 557.614 244.477 552.609 251.151C547.603 257.825 541.179 263.08 533.337 266.918C525.662 270.756 516.903 272.674 507.058 272.674ZM466.514 194.338H542.848C541.847 183.326 537.842 174.9 530.835 169.06C523.994 163.054 515.234 160.05 504.556 160.05C498.382 160.05 492.459 161.469 486.786 164.305C481.28 167.142 476.692 171.146 473.021 176.318C469.35 181.324 467.181 187.33 466.514 194.338ZM628.643 271.173C616.463 271.173 607.871 268.42 602.865 262.914C597.86 257.408 595.357 249.065 595.357 237.886V162.303H572.331V143.532H595.357V107.743H615.879V143.532H648.916V162.303H615.879V237.636C615.879 242.975 616.964 246.813 619.133 249.148C621.302 251.318 625.14 252.402 630.646 252.402H650.918V271.173H628.643ZM668.701 143.532H686.471L690.475 172.064L686.971 166.808C688.974 163.137 691.476 159.55 694.48 156.046C697.483 152.375 701.654 149.372 706.993 147.036C712.333 144.7 719.257 143.532 727.766 143.532H733.523V163.554H723.261C714.418 163.554 707.494 165.723 702.488 170.061C697.483 174.233 693.979 179.572 691.977 186.079C690.141 192.586 689.224 199.26 689.224 206.101V271.173H668.701V143.532ZM744.206 181.824C745.207 173.482 748.044 166.391 752.716 160.551C757.387 154.544 763.561 149.956 771.236 146.786C779.078 143.616 788.088 142.031 798.266 142.031C814.617 142.031 827.214 146.035 836.057 154.044C845.067 161.886 849.572 173.232 849.572 188.081V243.893C849.572 247.23 850.24 249.482 851.574 250.65C852.909 251.818 854.995 252.402 857.831 252.402H864.338V271.173H853.076C843.899 271.173 837.642 269.171 834.305 265.166C831.135 260.995 829.717 255.322 830.051 248.147L830.301 243.893L832.804 246.896C828.966 253.57 823.46 259.577 816.286 264.916C809.278 270.088 799.601 272.674 787.254 272.674C777.91 272.674 769.651 271.173 762.476 268.169C755.469 265.166 749.963 260.911 745.958 255.405C742.121 249.732 740.202 243.058 740.202 235.383C740.202 222.536 744.54 212.692 753.216 205.851C762.059 199.01 774.823 195.59 791.508 195.59H829.05V186.83C829.05 178.487 826.213 171.98 820.54 167.308C815.034 162.637 807.276 160.301 797.265 160.301C788.255 160.301 780.913 162.303 775.24 166.307C769.567 170.145 766.064 175.317 764.729 181.824H744.206ZM829.05 212.859H789.506C780.329 212.859 773.238 214.61 768.233 218.114C763.394 221.451 760.975 226.791 760.975 234.132C760.975 240.305 763.477 245.394 768.483 249.399C773.488 253.236 780.246 255.155 788.755 255.155C797.265 255.155 804.523 253.653 810.529 250.65C816.536 247.48 821.124 243.225 824.294 237.886C827.465 232.38 829.05 226.123 829.05 219.115V212.859ZM931.172 272.674C914.654 272.674 901.222 268.92 890.877 261.412C880.533 253.904 875.194 243.142 874.86 229.126H895.883C896.217 236.635 899.47 242.892 905.644 247.897C911.984 252.736 920.493 255.155 931.172 255.155C937.178 255.155 942.434 254.404 946.939 252.903C951.611 251.234 955.282 248.898 957.951 245.895C960.621 242.892 961.956 239.471 961.956 235.634C961.956 230.294 960.537 226.373 957.701 223.871C954.865 221.368 950.944 219.616 945.938 218.615C940.933 217.614 935.26 216.78 928.919 216.112C921.745 215.278 915.071 214.193 908.897 212.859C902.724 211.357 897.301 209.355 892.629 206.852C887.958 204.349 884.287 201.012 881.617 196.841C878.948 192.503 877.613 186.997 877.613 180.323C877.613 172.481 879.782 165.723 884.12 160.05C888.458 154.211 894.381 149.706 901.89 146.536C909.565 143.365 918.157 141.864 927.668 142.031C942.184 142.197 954.197 145.618 963.708 152.292C973.385 158.966 978.724 168.977 979.725 182.325H958.702C958.035 175.818 954.865 170.395 949.192 166.057C943.686 161.719 936.511 159.55 927.668 159.55C918.825 159.55 911.65 161.302 906.144 164.806C900.638 168.309 897.885 172.981 897.885 178.821C897.885 183.493 899.22 186.997 901.89 189.333C904.726 191.669 908.564 193.337 913.402 194.338C918.241 195.172 923.747 196.007 929.92 196.841C939.598 198.009 948.357 199.677 956.199 201.846C964.208 204.015 970.548 207.603 975.22 212.608C979.892 217.447 982.228 224.621 982.228 234.132C982.228 241.974 979.892 248.815 975.22 254.655C970.715 260.494 964.625 264.999 956.95 268.169C949.275 271.173 940.682 272.674 931.172 272.674ZM1062.32 272.674C1049.98 272.674 1039.13 270.005 1029.79 264.666C1020.44 259.326 1013.18 251.818 1008.01 242.141C1003.01 232.297 1000.5 220.784 1000.5 207.603C1000.5 194.588 1003.09 183.159 1008.26 173.315C1013.6 163.471 1020.94 155.796 1030.29 150.29C1039.63 144.784 1050.48 142.031 1062.82 142.031C1078.51 142.031 1091.1 146.118 1100.61 154.294C1110.29 162.47 1116.46 173.565 1119.13 187.581H1097.61C1095.78 179.071 1091.77 172.397 1085.6 167.559C1079.59 162.72 1071.92 160.301 1062.57 160.301C1054.4 160.301 1047.22 162.303 1041.05 166.307C1034.88 170.312 1030.04 175.901 1026.53 183.076C1023.2 190.083 1021.53 198.259 1021.53 207.603C1021.53 216.78 1023.2 224.955 1026.53 232.13C1030.04 239.137 1034.88 244.644 1041.05 248.648C1047.22 252.485 1054.4 254.404 1062.57 254.404C1071.75 254.404 1079.34 251.985 1085.35 247.146C1091.35 242.308 1095.36 235.8 1097.36 227.625H1119.13C1116.63 241.307 1110.37 252.235 1100.36 260.411C1090.52 268.587 1077.84 272.674 1062.32 272.674ZM1141.63 143.532H1162.16V271.173H1141.63V143.532ZM1152.15 122.009C1148.47 122.009 1145.3 120.757 1142.63 118.254C1140.13 115.752 1138.88 112.581 1138.88 108.744C1138.88 104.906 1140.13 101.736 1142.63 99.2335C1145.3 96.7307 1148.47 95.4793 1152.15 95.4793C1155.98 95.4793 1159.15 96.7307 1161.66 99.2335C1164.16 101.736 1165.41 104.906 1165.41 108.744C1165.41 112.581 1164.16 115.752 1161.66 118.254C1159.15 120.757 1155.98 122.009 1152.15 122.009ZM1249.09 272.674C1236.41 272.674 1225.31 269.921 1215.8 264.415C1206.29 258.909 1198.86 251.318 1193.53 241.64C1188.35 231.796 1185.77 220.367 1185.77 207.352C1185.77 194.338 1188.27 182.992 1193.27 173.315C1198.45 163.471 1205.54 155.796 1214.55 150.29C1223.72 144.784 1234.32 142.031 1246.33 142.031C1258.35 142.031 1268.77 144.45 1277.62 149.289C1286.63 154.127 1293.64 161.052 1298.64 170.061C1303.81 179.071 1306.57 189.917 1306.9 202.597C1306.9 203.932 1306.82 205.35 1306.65 206.852C1306.65 208.354 1306.57 209.855 1306.4 211.357H1207.29C1207.29 211.524 1207.29 211.774 1207.29 212.108C1207.29 212.441 1207.29 212.775 1207.29 213.109C1207.62 221.118 1209.38 228.292 1212.55 234.633C1215.88 240.806 1220.55 245.645 1226.56 249.148C1232.57 252.652 1239.58 254.404 1247.58 254.404C1256.59 254.404 1264.35 252.152 1270.86 247.647C1277.37 242.975 1281.71 236.551 1283.87 228.376H1304.65C1302.98 236.885 1299.64 244.477 1294.64 251.151C1289.63 257.825 1283.21 263.08 1275.37 266.918C1267.69 270.756 1258.93 272.674 1249.09 272.674ZM1208.54 194.338H1284.88C1283.87 183.326 1279.87 174.9 1272.86 169.06C1266.02 163.054 1257.26 160.05 1246.58 160.05C1240.41 160.05 1234.49 161.469 1228.81 164.305C1223.31 167.142 1218.72 171.146 1215.05 176.318C1211.38 181.324 1209.21 187.33 1208.54 194.338ZM1330.32 143.532H1348.09L1352.34 170.061L1348.09 164.806C1351.59 159.3 1356.85 154.127 1363.86 149.289C1371.03 144.45 1380.71 142.031 1392.89 142.031C1402.56 142.031 1411.24 143.949 1418.92 147.787C1426.76 151.624 1432.93 157.798 1437.44 166.307C1442.11 174.65 1444.44 185.912 1444.44 200.094V271.173H1423.92V201.346C1423.92 187.998 1420.92 177.903 1414.91 171.063C1409.07 164.222 1400.56 160.801 1389.38 160.801C1381.37 160.801 1374.45 162.72 1368.61 166.558C1362.94 170.228 1358.52 175.567 1355.35 182.575C1352.34 189.583 1350.84 197.842 1350.84 207.352V271.173H1330.32V143.532ZM1525.48 272.674C1513.13 272.674 1502.29 270.005 1492.94 264.666C1483.6 259.326 1476.34 251.818 1471.17 242.141C1466.16 232.297 1463.66 220.784 1463.66 207.603C1463.66 194.588 1466.25 183.159 1471.42 173.315C1476.76 163.471 1484.1 155.796 1493.44 150.29C1502.79 144.784 1513.63 142.031 1525.98 142.031C1541.66 142.031 1554.26 146.118 1563.77 154.294C1573.45 162.47 1579.62 173.565 1582.29 187.581H1560.77C1558.93 179.071 1554.93 172.397 1548.75 167.559C1542.75 162.72 1535.07 160.301 1525.73 160.301C1517.55 160.301 1510.38 162.303 1504.2 166.307C1498.03 170.312 1493.19 175.901 1489.69 183.076C1486.35 190.083 1484.68 198.259 1484.68 207.603C1484.68 216.78 1486.35 224.955 1489.69 232.13C1493.19 239.137 1498.03 244.644 1504.2 248.648C1510.38 252.485 1517.55 254.404 1525.73 254.404C1534.91 254.404 1542.5 251.985 1548.5 247.146C1554.51 242.308 1558.51 235.8 1560.52 227.625H1582.29C1579.79 241.307 1573.53 252.235 1563.52 260.411C1553.68 268.587 1541 272.674 1525.48 272.674ZM1663.6 272.674C1650.92 272.674 1639.83 269.921 1630.32 264.415C1620.81 258.909 1613.38 251.318 1608.04 241.64C1602.87 231.796 1600.29 220.367 1600.29 207.352C1600.29 194.338 1602.79 182.992 1607.79 173.315C1612.97 163.471 1620.06 155.796 1629.07 150.29C1638.24 144.784 1648.84 142.031 1660.85 142.031C1672.87 142.031 1683.29 144.45 1692.14 149.289C1701.15 154.127 1708.15 161.052 1713.16 170.061C1718.33 179.071 1721.08 189.917 1721.42 202.597C1721.42 203.932 1721.34 205.35 1721.17 206.852C1721.17 208.354 1721.08 209.855 1720.92 211.357H1621.81C1621.81 211.524 1621.81 211.774 1621.81 212.108C1621.81 212.441 1621.81 212.775 1621.81 213.109C1622.14 221.118 1623.89 228.292 1627.06 234.633C1630.4 240.806 1635.07 245.645 1641.08 249.148C1647.09 252.652 1654.09 254.404 1662.1 254.404C1671.11 254.404 1678.87 252.152 1685.38 247.647C1691.89 242.975 1696.22 236.551 1698.39 228.376H1719.17C1717.5 236.885 1714.16 244.477 1709.16 251.151C1704.15 257.825 1697.73 263.08 1689.88 266.918C1682.21 270.756 1673.45 272.674 1663.6 272.674ZM1623.06 194.338H1699.39C1698.39 183.326 1694.39 174.9 1687.38 169.06C1680.54 163.054 1671.78 160.05 1661.1 160.05C1654.93 160.05 1649.01 161.469 1643.33 164.305C1637.83 167.142 1633.24 171.146 1629.57 176.318C1625.9 181.324 1623.73 187.33 1623.06 194.338Z" fill="#F5F5FA"/>
<path fill-rule="evenodd" clip-rule="evenodd" d="M240.392 135.192C235.162 135.632 229.875 137.187 226.303 141.033C223.731 143.8 222.242 147.399 222.105 151.174L222.097 151.406C222.079 151.903 222.085 152.397 222.114 152.887C221.164 152.243 220.185 151.629 219.176 151.047C217.017 149.8 214.801 148.743 212.547 147.87C212.849 147.598 213.14 147.312 213.421 147.01C215.745 144.508 217.092 141.254 217.215 137.841L217.231 137.414C217.42 132.185 214.738 127.378 211.277 123.454C201.788 112.694 199.665 96.8164 207.134 83.8802C216.528 67.6091 237.54 62.1532 254.065 71.6941C270.59 81.235 276.371 102.16 266.977 118.431C261.232 128.381 251.143 134.287 240.392 135.192ZM148.075 193.428C144.73 195.288 140.703 195.594 137.079 194.197L135.018 193.404C130.218 191.554 126.653 187.561 124.368 182.953C119.72 173.577 112.328 165.405 102.554 159.762C76.3679 144.643 43.0026 153.409 28.0307 179.341C13.0588 205.273 22.1499 238.552 48.3362 253.67C74.5225 268.789 107.888 260.023 122.86 234.091C125.707 229.159 127.684 223.962 128.839 218.674C129.742 214.538 131.673 210.622 134.926 207.912L135.868 207.126C139.622 203.998 144.75 203.083 149.354 204.721C149.512 204.777 149.668 204.836 149.822 204.897C148.778 201.17 148.187 197.317 148.075 193.428ZM205.98 238.333C208.123 239.125 210.085 240.329 211.692 242.017L212.103 242.448C214.22 244.671 215.467 247.581 215.619 250.647C215.853 255.405 213.299 259.768 209.764 262.961C206.451 265.953 203.622 269.572 201.469 273.76C191.671 292.819 199.603 316.43 219.184 326.497C238.766 336.563 262.583 329.272 272.381 310.213C282.178 291.154 274.247 267.543 254.665 257.476C249.666 254.906 244.39 253.467 239.142 253.067C234.141 252.686 229.147 251.11 225.689 247.479L225.272 247.041C222.923 244.573 221.538 241.344 221.37 237.941C221.247 235.44 221.821 233.03 222.871 230.806C217.76 234.419 212.008 236.961 205.98 238.333ZM161.88 172.709C172.591 154.157 196.314 147.8 214.866 158.511C233.418 169.223 239.775 192.945 229.063 211.498C218.352 230.05 194.63 236.407 176.077 225.695C157.525 214.984 151.168 191.261 161.88 172.709Z" fill="#F5F5FA"/>
</svg>
