<svg width="166" height="35" viewBox="0 0 166 35" fill="none" xmlns="http://www.w3.org/2000/svg">
<path fill-rule="evenodd" clip-rule="evenodd" d="M21.0704 16.8466C21.0704 18.9546 19.367 20.6634 17.2657 20.6634C15.8428 20.6634 14.6024 19.8799 13.9501 18.7196C13.9436 18.7072 13.9368 18.6953 13.9299 18.6833C13.631 18.1384 13.4609 17.5125 13.4609 16.8466C13.4609 14.7387 15.1644 13.0298 17.2657 13.0298C19.367 13.0298 21.0704 14.7387 21.0704 16.8466Z" fill="#2F45B5"/>
<path fill-rule="evenodd" clip-rule="evenodd" d="M25.208 26.6391C25.208 28.7852 23.4738 30.5249 21.3345 30.5249C19.1951 30.5249 17.4609 28.7852 17.4609 26.6391C17.4609 25.5354 17.9193 24.5394 18.656 23.8316C18.6578 23.8298 18.6597 23.828 18.662 23.8261C18.6876 23.8018 18.7138 23.7774 18.7403 23.7535C19.0654 23.4311 19.2671 22.9841 19.2671 22.4893C19.2671 21.9945 19.0672 21.5517 18.7449 21.2298C19.0594 21.1259 19.3592 20.9888 19.6402 20.8228V20.8325C19.6402 21.8506 20.4277 22.6848 21.4252 22.7547C21.4651 22.7574 21.505 22.7588 21.5458 22.7593C23.5871 22.8692 25.208 24.5642 25.208 26.6391Z" fill="#2F45B5"/>
<path fill-rule="evenodd" clip-rule="evenodd" d="M12.698 17.7891C12.6169 17.7771 12.5343 17.7712 12.45 17.7712C11.629 17.7712 10.9432 18.352 10.7787 19.1263C10.7727 19.1654 10.7658 19.2041 10.758 19.2427C10.2918 21.7498 8.09882 23.6472 5.46438 23.6472C2.48979 23.6472 0.078125 21.2279 0.078125 18.2439C0.078125 15.2599 2.48979 12.8406 5.46438 12.8406C7.66197 12.8406 9.55243 14.1613 10.3899 16.0545C10.3918 16.0586 10.3936 16.0628 10.395 16.0669C10.4064 16.0913 10.417 16.1161 10.4275 16.141C10.428 16.1423 10.4284 16.1437 10.4294 16.1451C10.692 16.7121 11.265 17.1053 11.9297 17.1053C12.1667 17.1053 12.3922 17.0552 12.5958 16.965C12.6054 17.2469 12.6402 17.5224 12.698 17.7891Z" fill="#2F45B5"/>
<path fill-rule="evenodd" clip-rule="evenodd" d="M24.7434 7.87808C24.7434 9.70463 23.3086 11.1955 21.5079 11.2773C21.4983 11.2769 21.4887 11.2769 21.4791 11.2769C21.4383 11.2769 21.3975 11.2783 21.3571 11.281C20.5027 11.3385 19.8114 11.9938 19.6963 12.8344C19.4534 12.6863 19.1962 12.5594 18.9267 12.4573C19.1925 12.1685 19.3548 11.7823 19.3548 11.3578C19.3548 10.9334 19.1958 10.5549 18.9345 10.2666C18.9313 10.2629 18.9281 10.2597 18.9248 10.256C18.9106 10.2404 18.896 10.2252 18.8808 10.21L18.8781 10.2073C18.3078 9.59887 17.959 8.7794 17.959 7.87808C17.959 5.99865 19.4777 4.47515 21.3512 4.47515C23.2247 4.47515 24.7434 5.99865 24.7434 7.87808Z" fill="#2F45B5"/>
<path d="M159.369 25.0004C158.153 25.0004 157.088 24.7363 156.176 24.2081C155.264 23.6798 154.551 22.9515 154.039 22.0231C153.543 21.0787 153.295 19.9822 153.295 18.7336C153.295 17.4851 153.535 16.3966 154.015 15.4681C154.511 14.5237 155.192 13.7874 156.056 13.2592C156.936 12.7309 157.953 12.4668 159.105 12.4668C160.258 12.4668 161.258 12.6989 162.106 13.1631C162.971 13.6273 163.643 14.2916 164.123 15.156C164.619 16.0204 164.884 17.0609 164.916 18.2774C164.916 18.4055 164.908 18.5415 164.892 18.6856C164.892 18.8297 164.884 18.9737 164.868 19.1178H155.36C155.36 19.1338 155.36 19.1578 155.36 19.1898C155.36 19.2218 155.36 19.2538 155.36 19.2859C155.392 20.0542 155.56 20.7425 155.864 21.3508C156.184 21.9431 156.632 22.4073 157.208 22.7434C157.785 23.0796 158.457 23.2476 159.225 23.2476C160.09 23.2476 160.834 23.0315 161.458 22.5994C162.082 22.1512 162.499 21.5349 162.707 20.7505H164.699C164.539 21.5669 164.219 22.2952 163.739 22.9355C163.259 23.5758 162.643 24.08 161.89 24.4482C161.154 24.8163 160.314 25.0004 159.369 25.0004ZM155.48 17.4851H162.803C162.707 16.4286 162.322 15.6202 161.65 15.06C160.994 14.4837 160.154 14.1956 159.129 14.1956C158.537 14.1956 157.969 14.3316 157.425 14.6038C156.896 14.8759 156.456 15.2601 156.104 15.7563C155.752 16.2365 155.544 16.8128 155.48 17.4851Z" fill="#549DFF"/>
<path d="M146.118 25.0004C144.933 25.0004 143.893 24.7443 142.997 24.2321C142.1 23.7199 141.404 22.9995 140.908 22.0711C140.428 21.1267 140.188 20.0222 140.188 18.7576C140.188 17.5091 140.436 16.4126 140.932 15.4681C141.444 14.5237 142.148 13.7874 143.045 13.2592C143.941 12.7309 144.981 12.4668 146.166 12.4668C147.67 12.4668 148.879 12.859 149.791 13.6433C150.72 14.4277 151.312 15.4922 151.568 16.8368H149.503C149.327 16.0204 148.943 15.3801 148.351 14.9159C147.775 14.4517 147.038 14.2196 146.142 14.2196C145.358 14.2196 144.669 14.4117 144.077 14.7958C143.485 15.18 143.021 15.7163 142.684 16.4046C142.364 17.0769 142.204 17.8612 142.204 18.7576C142.204 19.638 142.364 20.4224 142.684 21.1107C143.021 21.783 143.485 22.3112 144.077 22.6954C144.669 23.0636 145.358 23.2476 146.142 23.2476C147.022 23.2476 147.75 23.0155 148.327 22.5513C148.903 22.0871 149.287 21.4628 149.479 20.6785H151.568C151.328 21.9911 150.728 23.0395 149.767 23.8239C148.823 24.6083 147.606 25.0004 146.118 25.0004Z" fill="#549DFF"/>
<path d="M127.395 12.6109H129.099L129.507 15.156L129.099 14.6518C129.435 14.1235 129.94 13.6273 130.612 13.1631C131.3 12.6989 132.228 12.4668 133.397 12.4668C134.325 12.4668 135.158 12.6509 135.894 13.019C136.646 13.3872 137.238 13.9795 137.671 14.7958C138.119 15.5962 138.343 16.6767 138.343 18.0373V24.8564H136.374V18.1574C136.374 16.8768 136.086 15.9083 135.51 15.252C134.95 14.5958 134.133 14.2676 133.061 14.2676C132.292 14.2676 131.628 14.4517 131.068 14.8199C130.524 15.172 130.1 15.6842 129.795 16.3565C129.507 17.0288 129.363 17.8212 129.363 18.7336V24.8564H127.395V12.6109Z" fill="#549DFF"/>
<path d="M119.602 25.0004C118.385 25.0004 117.321 24.7363 116.408 24.2081C115.496 23.6798 114.784 22.9515 114.272 22.0231C113.775 21.0787 113.527 19.9822 113.527 18.7336C113.527 17.4851 113.767 16.3966 114.248 15.4681C114.744 14.5237 115.424 13.7874 116.288 13.2592C117.169 12.7309 118.185 12.4668 119.338 12.4668C120.49 12.4668 121.49 12.6989 122.339 13.1631C123.203 13.6273 123.875 14.2916 124.356 15.156C124.852 16.0204 125.116 17.0609 125.148 18.2774C125.148 18.4055 125.14 18.5415 125.124 18.6856C125.124 18.8297 125.116 18.9737 125.1 19.1178H115.592C115.592 19.1338 115.592 19.1578 115.592 19.1898C115.592 19.2218 115.592 19.2538 115.592 19.2859C115.624 20.0542 115.792 20.7425 116.096 21.3508C116.416 21.9431 116.865 22.4073 117.441 22.7434C118.017 23.0796 118.689 23.2476 119.458 23.2476C120.322 23.2476 121.066 23.0315 121.691 22.5994C122.315 22.1512 122.731 21.5349 122.939 20.7505H124.932C124.772 21.5669 124.452 22.2952 123.971 22.9355C123.491 23.5758 122.875 24.08 122.123 24.4482C121.386 24.8163 120.546 25.0004 119.602 25.0004ZM115.712 17.4851H123.035C122.939 16.4286 122.555 15.6202 121.883 15.06C121.226 14.4837 120.386 14.1956 119.362 14.1956C118.769 14.1956 118.201 14.3316 117.657 14.6038C117.129 14.8759 116.689 15.2601 116.336 15.7563C115.984 16.2365 115.776 16.8128 115.712 17.4851Z" fill="#549DFF"/>
<path d="M109.295 12.6101H111.264V24.8556H109.295V12.6101ZM110.304 10.5451C109.952 10.5451 109.647 10.4251 109.391 10.185C109.151 9.94487 109.031 9.64074 109.031 9.27257C109.031 8.90441 109.151 8.60027 109.391 8.36016C109.647 8.12005 109.952 8 110.304 8C110.672 8 110.976 8.12005 111.216 8.36016C111.456 8.60027 111.576 8.90441 111.576 9.27257C111.576 9.64074 111.456 9.94487 111.216 10.185C110.976 10.4251 110.672 10.5451 110.304 10.5451Z" fill="#549DFF"/>
<path d="M101.686 25.0004C100.502 25.0004 99.4613 24.7443 98.565 24.2321C97.6686 23.7199 96.9723 22.9995 96.4761 22.0711C95.996 21.1267 95.7559 20.0222 95.7559 18.7576C95.7559 17.5091 96.004 16.4126 96.5002 15.4681C97.0124 14.5237 97.7166 13.7874 98.613 13.2592C99.5093 12.7309 100.55 12.4668 101.734 12.4668C103.239 12.4668 104.447 12.859 105.36 13.6433C106.288 14.4277 106.88 15.4922 107.136 16.8368H105.072C104.895 16.0204 104.511 15.3801 103.919 14.9159C103.343 14.4517 102.607 14.2196 101.71 14.2196C100.926 14.2196 100.238 14.4117 99.6454 14.7958C99.0532 15.18 98.589 15.7163 98.2528 16.4046C97.9327 17.0769 97.7727 17.8612 97.7727 18.7576C97.7727 19.638 97.9327 20.4224 98.2528 21.1107C98.589 21.783 99.0532 22.3112 99.6454 22.6954C100.238 23.0636 100.926 23.2476 101.71 23.2476C102.591 23.2476 103.319 23.0155 103.895 22.5513C104.471 22.0871 104.855 21.4628 105.048 20.6785H107.136C106.896 21.9911 106.296 23.0395 105.336 23.8239C104.391 24.6083 103.175 25.0004 101.686 25.0004Z" fill="#549DFF"/>
<path d="M89.1053 24.9997C87.5206 24.9997 86.2321 24.6395 85.2397 23.9192C84.2473 23.1989 83.7351 22.1664 83.7031 20.8218H85.7199C85.7519 21.5421 86.0641 22.1424 86.6563 22.6226C87.2645 23.0868 88.0809 23.3189 89.1053 23.3189C89.6815 23.3189 90.1857 23.2469 90.6179 23.1028C91.066 22.9428 91.4182 22.7187 91.6743 22.4305C91.9304 22.1424 92.0584 21.8142 92.0584 21.4461C92.0584 20.9339 91.9224 20.5577 91.6503 20.3176C91.3782 20.0775 91.002 19.9094 90.5218 19.8133C90.0416 19.7173 89.4974 19.6373 88.8892 19.5732C88.2009 19.4932 87.5607 19.3892 86.9684 19.2611C86.3762 19.117 85.856 18.9249 85.4078 18.6848C84.9596 18.4447 84.6075 18.1246 84.3514 17.7244C84.0953 17.3082 83.9672 16.78 83.9672 16.1397C83.9672 15.3874 84.1753 14.7391 84.5915 14.1948C85.0076 13.6346 85.5759 13.2024 86.2962 12.8982C87.0324 12.5941 87.8568 12.45 88.7691 12.466C90.1617 12.4821 91.3141 12.8102 92.2265 13.4505C93.1549 14.0908 93.6671 15.0512 93.7631 16.3318H91.7463C91.6823 15.7075 91.3782 15.1873 90.8339 14.7711C90.3057 14.3549 89.6175 14.1468 88.7691 14.1468C87.9208 14.1468 87.2325 14.3149 86.7043 14.651C86.1761 14.9872 85.912 15.4354 85.912 15.9956C85.912 16.4438 86.04 16.78 86.2962 17.0041C86.5683 17.2282 86.9364 17.3883 87.4006 17.4843C87.8648 17.5643 88.393 17.6444 88.9852 17.7244C89.9136 17.8365 90.7539 17.9965 91.5062 18.2046C92.2745 18.4127 92.8828 18.7569 93.3309 19.2371C93.7791 19.7013 94.0032 20.3896 94.0032 21.302C94.0032 22.0544 93.7791 22.7107 93.3309 23.2709C92.8988 23.8312 92.3145 24.2634 91.5782 24.5675C90.842 24.8556 90.0176 24.9997 89.1053 24.9997Z" fill="#549DFF"/>
<path d="M71.1693 16.2845C71.2653 15.4842 71.5375 14.8038 71.9856 14.2436C72.4338 13.6673 73.026 13.2271 73.7623 12.923C74.5146 12.6189 75.379 12.4668 76.3554 12.4668C77.924 12.4668 79.1325 12.851 79.9808 13.6193C80.8451 14.3717 81.2773 15.4601 81.2773 16.8848V22.2392C81.2773 22.5593 81.3413 22.7754 81.4694 22.8875C81.5974 22.9995 81.7975 23.0556 82.0696 23.0556H82.6939V24.8564H81.6134C80.7331 24.8564 80.1329 24.6643 79.8127 24.2801C79.5086 23.8799 79.3726 23.3357 79.4046 22.6474L79.4286 22.2392L79.6687 22.5273C79.3005 23.1676 78.7723 23.7439 78.084 24.2561C77.4118 24.7523 76.4834 25.0004 75.2989 25.0004C74.4026 25.0004 73.6103 24.8564 72.922 24.5682C72.2497 24.2801 71.7215 23.8719 71.3374 23.3437C70.9692 22.7994 70.7852 22.1592 70.7852 21.4228C70.7852 20.1903 71.2013 19.2458 72.0337 18.5896C72.882 17.9333 74.1065 17.6051 75.7071 17.6051H79.3085V16.7647C79.3085 15.9644 79.0364 15.3401 78.4922 14.8919C77.964 14.4437 77.2197 14.2196 76.2593 14.2196C75.395 14.2196 74.6907 14.4117 74.1465 14.7958C73.6023 15.164 73.2661 15.6602 73.1381 16.2845H71.1693ZM79.3085 19.2619H75.515C74.6347 19.2619 73.9544 19.4299 73.4742 19.7661C73.01 20.0862 72.7779 20.5985 72.7779 21.3028C72.7779 21.895 73.018 22.3833 73.4982 22.7674C73.9784 23.1356 74.6267 23.3197 75.443 23.3197C76.2593 23.3197 76.9556 23.1756 77.5318 22.8875C78.1081 22.5833 78.5482 22.1752 78.8524 21.6629C79.1565 21.1347 79.3085 20.5344 79.3085 19.8621V19.2619Z" fill="#2F45B5"/>
<path d="M63.9258 12.6133H65.6305L66.0146 15.3505L65.6785 14.8463C65.8706 14.4941 66.1106 14.15 66.3988 13.8138C66.6869 13.4617 67.087 13.1735 67.5992 12.9494C68.1114 12.7253 68.7757 12.6133 69.592 12.6133H70.1442V14.5341H69.1599C68.3115 14.5341 67.6473 14.7422 67.1671 15.1584C66.6869 15.5586 66.3507 16.0708 66.1587 16.6951C65.9826 17.3194 65.8946 17.9597 65.8946 18.616V24.8588H63.9258V12.6133Z" fill="#2F45B5"/>
<path d="M60.0818 24.8568C58.9134 24.8568 58.089 24.5927 57.6088 24.0644C57.1287 23.5362 56.8886 22.7358 56.8886 21.6633V14.4121H54.6797V12.6113H56.8886V9.17773H58.8573V12.6113H62.0266V14.4121H58.8573V21.6393C58.8573 22.1516 58.9614 22.5197 59.1695 22.7438C59.3775 22.9519 59.7457 23.056 60.2739 23.056H62.2187V24.8568H60.0818Z" fill="#2F45B5"/>
<path d="M48.4182 25.0004C47.2017 25.0004 46.1373 24.7363 45.2249 24.2081C44.3125 23.6798 43.6002 22.9515 43.088 22.0231C42.5918 21.0787 42.3438 19.9822 42.3438 18.7336C42.3438 17.4851 42.5838 16.3966 43.064 15.4681C43.5602 14.5237 44.2405 13.7874 45.1048 13.2592C45.9852 12.7309 47.0016 12.4668 48.1541 12.4668C49.3065 12.4668 50.3069 12.6989 51.1552 13.1631C52.0196 13.6273 52.6918 14.2916 53.172 15.156C53.6682 16.0204 53.9323 17.0609 53.9644 18.2774C53.9644 18.4055 53.9564 18.5415 53.9403 18.6856C53.9403 18.8297 53.9323 18.9737 53.9163 19.1178H44.4086C44.4086 19.1338 44.4086 19.1578 44.4086 19.1898C44.4086 19.2218 44.4086 19.2538 44.4086 19.2859C44.4406 20.0542 44.6086 20.7425 44.9128 21.3508C45.2329 21.9431 45.6811 22.4073 46.2573 22.7434C46.8335 23.0796 47.5058 23.2476 48.2741 23.2476C49.1384 23.2476 49.8827 23.0315 50.507 22.5994C51.1312 22.1512 51.5474 21.5349 51.7555 20.7505H53.7483C53.5882 21.5669 53.2681 22.2952 52.7879 22.9355C52.3077 23.5758 51.6915 24.08 50.9392 24.4482C50.2029 24.8163 49.3625 25.0004 48.4182 25.0004ZM44.5286 17.4851H51.8515C51.7555 16.4286 51.3713 15.6202 50.6991 15.06C50.0428 14.4837 49.2025 14.1956 48.1781 14.1956C47.5858 14.1956 47.0176 14.3316 46.4734 14.6038C45.9452 14.8759 45.505 15.2601 45.1529 15.7563C44.8007 16.2365 44.5926 16.8128 44.5286 17.4851Z" fill="#2F45B5"/>
<path d="M39.4021 24.8568C38.2337 24.8568 37.4094 24.5927 36.9292 24.0644C36.449 23.5362 36.2089 22.7358 36.2089 21.6633V14.4121H34V12.6113H36.2089V9.17773H38.1777V12.6113H41.3469V14.4121H38.1777V21.6393C38.1777 22.1516 38.2817 22.5197 38.4898 22.7438C38.6979 22.9519 39.066 23.056 39.5942 23.056H41.539V24.8568H39.4021Z" fill="#2F45B5"/>
</svg>
